<svg width="588" height="182" viewBox="0 0 588 182" fill="none" xmlns="http://www.w3.org/2000/svg">
<g clip-path="url(#clip0_7263_31927)">
<path d="M52.6127 15.4999C43.7528 18.9999 27.6603 31.2999 34.1696 52.4999C42.3063 78.9999 94.3808 43.4999 129.097 52.4999C140.484 55.4519 145.627 64.2674 149.464 74.5M149.464 74.5C157.324 95.4639 159.704 122.376 199.072 117C220.914 114.017 238.007 107.768 252.232 99.2881M149.464 74.5C149.464 74.5 157.847 121.5 108.484 135M508.807 135C508.807 135 384.588 155.5 376.994 117C369.4 78.4999 438.29 66.4998 429.611 32.9999C420.932 -0.499954 335.226 7.49969 308.646 42.4999C291.976 64.4506 276.16 85.0245 252.232 99.2881M252.232 99.2881C279.354 86.5 284.778 12 212.634 32.9999" stroke="#CDCDD9" stroke-width="2" stroke-linecap="round" stroke-dasharray="6 12"/>
<path d="M52.6129 15.4999C43.7531 18.9999 27.6605 31.2999 34.1699 52.4999C42.3065 78.9999 94.381 43.4999 129.097 52.4999C140.485 55.4519 145.627 64.2674 149.464 74.5C157.325 95.4639 159.704 122.376 199.072 117C220.916 114.017 238.007 107.768 252.232 99.2881C276.16 85.0245 291.977 64.4506 308.646 42.4999C335.226 7.49969 420.932 -0.499954 429.611 32.9999C438.29 66.4998 369.4 78.4999 376.994 117C384.588 155.5 508.807 135 508.807 135" stroke="#34384A" stroke-width="2" stroke-linecap="round" stroke-dasharray="6 12"/>
<path fill-rule="evenodd" clip-rule="evenodd" d="M92.8467 126.586C93.694 125.805 95.0679 125.805 95.9152 126.586C96.7626 127.367 96.7626 128.633 95.9152 129.414L86.6006 138L95.9152 146.586C96.7626 147.367 96.7626 148.633 95.9152 149.414C95.0679 150.195 93.694 150.195 92.8467 149.414L83.5321 140.828L74.2175 149.414C73.3702 150.195 71.9963 150.195 71.149 149.414C70.3016 148.633 70.3016 147.367 71.149 146.586L80.4636 138L71.149 129.414C70.3016 128.633 70.3016 127.367 71.149 126.586C71.9963 125.805 73.3702 125.805 74.2175 126.586L83.5321 135.172L92.8467 126.586Z" fill="#CDCDD9"/>
<path fill-rule="evenodd" clip-rule="evenodd" d="M201.878 25.5858C202.725 24.8047 204.099 24.8047 204.946 25.5858C205.793 26.3668 205.793 27.6332 204.946 28.4142L195.631 37L204.946 45.5858C205.793 46.3668 205.793 47.6332 204.946 48.4142C204.099 49.1953 202.725 49.1953 201.878 48.4142L192.563 39.8284L183.248 48.4142C182.401 49.1953 181.027 49.1953 180.18 48.4142C179.333 47.6332 179.333 46.3668 180.18 45.5858L189.495 37L180.18 28.4142C179.333 27.6332 179.333 26.3668 180.18 25.5858C181.027 24.8047 182.401 24.8047 183.248 25.5858L192.563 34.1716L201.878 25.5858Z" fill="#CDCDD9"/>
<path fill-rule="evenodd" clip-rule="evenodd" d="M555.364 118.586C554.517 117.805 553.143 117.805 552.296 118.586L532.132 137.172L523.36 129.086C522.513 128.305 521.139 128.305 520.292 129.086C519.445 129.867 519.445 131.133 520.292 131.914L530.598 141.414L532.132 142.828L533.666 141.414L555.364 121.414C556.211 120.633 556.211 119.367 555.364 118.586Z" fill="#91C229"/>
</g>
<defs>
<clipPath id="clip0_7263_31927">
<rect width="524" height="182" fill="white" transform="translate(32)"/>
</clipPath>
</defs>
</svg>
